<svg xmlns="http://www.w3.org/2000/svg" viewBox="0 0 241.94 267.92"><defs><style>.cls-1{fill:#fbfbf2;}</style></defs><g id="Layer_2" data-name="Layer 2"><g id="Layer_1-2" data-name="Layer 1"><path class="cls-1" d="M240,120.44c-7.68-33.9,25.26-83.92-37.54-96.74-1.55-.32-2.13-8-2.21-12.3C200.08,2.17,194.28,1,187,.94s-13.14,1.17-13.36,10.31c-.19,7.59,1,16.21-10.94,16.14q-43.26-.21-86.5-.13c-17.69,0-.32-29.12-24.5-27.17C31.15,1.76,49.28,31.2,27.53,27.67a8.85,8.85,0,0,0-3.3.31C7.8,31.71,0,42.13,0,58.85Q.08,147,0,235.19c0,22,11.17,32.61,32.82,32.63,57.68.05,115.35-.15,173,.1,23.48.1,34.73-10.9,34.49-34.42-.28-28.83-.06-57.67-.05-86.5C240.28,138.12,241.91,128.88,240,120.44ZM161.73,241.16H118.36c-23.36,0-46.78-1.15-70,.35-18.37,1.19-23.24-6.2-21.8-23,3.1-36.15-15.29-83.44,7.46-105.33,18.16-17.47,65.32-5.27,99.61-5.4,80-.3,80-.09,80,80.94C213.58,241.16,213.58,241.16,161.73,241.16ZM197.87,81.05C145.93,80.76,94,80.9,42.05,80.94c-8.26,0-15-.62-15.42-11.84-.49-12,5-15.09,15.79-14.92,26.52.4,53.05.13,79.57.13q38.13,0,76.25,0c8.22,0,15,.55,15.41,11.82C214.12,78.14,208.67,81.11,197.87,81.05Z"/><path class="cls-1" d="M161.43,161.7c24.3-6.07,25,8.07,26.15,27.1,1.44,23.49-8.94,25.46-28.45,26.43-23.5,1.15-25.61-9-26.37-28.52C131.86,163.69,140.58,157.23,161.43,161.7Z"/></g></g></svg>