<svg xmlns="http://www.w3.org/2000/svg" viewBox="0 0 563.53 593.72"><defs><style>.cls-1{fill:#fafaf1;}</style></defs><g id="Layer_2" data-name="Layer 2"><g id="Layer_1-2" data-name="Layer 1"><path class="cls-1" d="M552.58,252.81c-26.93-39.82-60.76-66.43-109.47-23-32.21,28.71-75.6,41.85-102.22,1.18-28.67-43.81,2.48-72,46.52-85.79,6.79-2.12,13.17-6.93,18.59-11.77,24.41-21.83,51.47-45.64,31.78-81.54-16.54-30.15-41.12-62.51-81.55-48.51-35.52,12.3-67.7,38.68-57.86,83,16.16,72.74-25.77,86.41-83,96.65-64,11.44-61.31-35.15-67-71.15-7.1-44.7-29.46-75.59-72.72-80.19C36.45,27.49,9.33,58,2.38,92.41-7.08,139.35,27.17,166,67.57,176.17c50.18,12.6,74.83,33.13,54.15,88.31-6.51,17.35-7.51,41-1.21,58.15,20.39,55.61,1.91,80.2-54.16,94.85C3.08,434-17.53,485.79,15.79,527.36c17.06,21.28,37.45,44,68.39,33.71,34.34-11.37,59.41-34.76,62.84-74,4.13-47.23,23.06-78.3,75.45-74.74C294,413.66,332.6,442.13,327,519c-2.68,36.52,27.2,57.52,56.51,70.8,25.51,11.55,46.83-4.08,65.12-23.09,44-45.72,27.81-91.86-43.83-121.25-45.58-18.7-80-49.9-55.65-99.42s65.15-43,102.64-5.95C471.61,359.69,496.7,362.42,519,345,548.73,321.82,580.9,294.67,552.58,252.81ZM293.89,303c-3.49,32.86-26.7,50.32-61.47,52.63-34.16-7.95-57.86-27.84-53.46-65.52,3.8-32.59,26.33-54,60.28-51.26C275.89,241.75,297.83,265.74,293.89,303Z"/></g></g></svg>