<svg xmlns="http://www.w3.org/2000/svg" viewBox="0 0 307.4 307.21"><defs><style>.cls-1{fill:#fbfbf2;}</style></defs><g id="Layer_2" data-name="Layer 2"><g id="Layer_1-2" data-name="Layer 1"><path class="cls-1" d="M172.49,307.21H109.05V102.42h60.67V130c.84-.48,1.24-.57,1.39-.81,13.38-21.56,33.39-31.1,58.12-31.84,14.12-.43,28,1.29,40.92,7.4,16.78,7.91,26.18,21.79,31.38,39,4.14,13.77,5.57,28,5.67,42.21.26,39.51.16,79,.2,118.52,0,.6-.09,1.21-.15,2.05H243.64v-4.25c0-33.5.09-67-.13-100.51a132,132,0,0,0-2-22.73c-3.87-21-17.52-28.1-37.06-25.79-17.8,2.1-27.59,12.52-30.36,31.77a153.18,153.18,0,0,0-1.5,21.29c-.16,32-.07,64-.07,96Z"/><path class="cls-1" d="M5.28,102.37H68.64v204.7H5.28Z"/><path class="cls-1" d="M73.74,36.77C73.85,57.14,57.33,74,37.16,74.14S0,57.35,0,36.91a36.87,36.87,0,0,1,73.74-.14Z"/></g></g></svg>