<svg xmlns="http://www.w3.org/2000/svg" viewBox="0 0 37.8 39.46"><defs><style>.cls-1{fill:#fbfbf2;}</style></defs><g id="Layer_2" data-name="Layer 2"><g id="Layer_1-2" data-name="Layer 1"><path class="cls-1" d="M33.93,39.33c-2.39-.39-4.26-1.66-3.86-4.17s1.34-6.43,4.06-6.44c2,0,3.28,3.8,3.63,6.37S36.38,38.93,33.93,39.33Z"/><path class="cls-1" d="M30.12,19.26C24.14,13,18,7,11.88.86c-1-1-1.73-1.24-2.82-.12S7.67,2.76,9,3.6c5.6,3.66,2.31,6.32-.87,9.14C6,14.61,4,16.65,2,18.64a6.13,6.13,0,0,0-2,5.25,5,5,0,0,0,.88,2.37c3.88,4.09,7.75,8.21,11.94,12,2.25,2,5.06,1.45,7.23-.63q5-4.81,9.87-9.86C32.48,25,32.71,22,30.12,19.26Zm-27.27,4c4.57-4.37,8.27-7.92,12-11.45.95-.9,1.77-.45,2.55.32l11.4,11.13Z"/></g></g></svg>