<svg xmlns="http://www.w3.org/2000/svg" viewBox="0 0 204.91 256"><defs><style>.cls-1{fill:#fbfbf2;}</style></defs><g id="Layer_2" data-name="Layer 2"><g id="Layer_1-2" data-name="Layer 1"><path class="cls-1" d="M204.9,37.39C205.16,12.46,195.73-.34,169.51,0Q102.61,1,35.7,0C9.66-.41-.67,11.65,0,36.92c.82,29.71.2,59.47.19,89.21,0,30.8.6,61.61-.18,92.39-.63,24.92,9.05,37.8,35.28,37.46q66.88-.9,133.8,0c26,.37,36-11.79,35.78-37Q204,128.19,204.9,37.39Zm-25.51,8.49c-.91,27.65-.26,55.35-.26,83s-.55,55.39.23,83.05c.38,13.51-3.61,18.85-17.92,18.56q-59.07-1.2-118.16,0c-14.55.31-17.83-5.55-17.71-18.77.53-55.36.65-110.73-.06-166.09-.19-14.9,3.87-20.6,19.58-20.2q57.45,1.45,115,0C176,25,179.88,31.21,179.39,45.88Z"/><path class="cls-1" d="M128.15,90.7c-10.4-3.7-25,5.64-25.45-12.54-.59-22.85,17.2-12.79,27.24-13.46,8.41-.57,22.73-7.07,23.46,11C154.37,99.61,134.81,84.12,128.15,90.7Z"/><path class="cls-1" d="M127.27,141.16c-10.18-2.47-26.34,6-24.55-14.53,1.71-19.62,17.32-10.25,26.69-10.85,9.52-.6,25.58-6.86,23.92,13.58C151.71,149.34,135.54,136.91,127.27,141.16Z"/><path class="cls-1" d="M126,192.37c-9.52-2.54-23.94,5.34-23.34-12.92.73-22.55,18.27-11.19,28.25-12.49,8.44-1.1,22.95-6.23,22.43,11.89C152.7,201.58,134.48,187.33,126,192.37Z"/><path class="cls-1" d="M76.62,76.37c1.09,10.68-4,13.33-12.9,13.35-9.59,0-12.42-4.29-12.42-13.26,0-9.61,4.33-12.48,13.29-12.38C74,64.18,78.17,67.88,76.62,76.37Z"/><path class="cls-1" d="M65.27,140.6c-8.41.86-14-1.18-13.94-11.41.05-8.36,1.42-14,11.65-14,8.39.06,14.05,1.43,14,11.67C76.84,135.21,75.7,141.55,65.27,140.6Z"/><path class="cls-1" d="M63.67,166.56c9-1,13.24,2.62,13.27,12.17,0,9-2.8,13.25-12.41,13.25-9,0-13.29-2.76-13.24-12.39C51.33,170.7,54,165.59,63.67,166.56Z"/></g></g></svg>