<svg xmlns="http://www.w3.org/2000/svg" viewBox="0 0 451.89 360.99"><defs><style>.cls-1{fill:#fbfbf2;}</style></defs><g id="Layer_2" data-name="Layer 2"><g id="Layer_1-2" data-name="Layer 1"><path class="cls-1" d="M451.87,243.72c-1.59-73.89-.55-147.83-.55-235.64-52.63,32.12-98.65,35.05-144.85,5.68-28.87-18.37-60.12-18.14-90.14-.55-14.62,8.57-30.51,6.57-46.23,7.62-53.77,3.59-127.63-24-155.85,11.48C-12.61,66.07,6.9,136.74,6.06,191.18c-.11,7,0,14.1.1,21.15.18,8.74.72,15.78,11.31,20.49,46,20.47,76.72,60.72,114.43,91.89,57.49,47.53,74.61,50.47,123.27-3.77,32.54-36.26,67.45-53,115.2-46.12,15.54,2.24,31.78-.81,47.51.61C442,277.61,452.44,270.37,451.87,243.72ZM317.34,198.77c-3,6-8.57,11.15-13.88,15.66-38.33,32.61-70.11,103.5-110.36,95-49.9-10.51-90.77-67.1-133.8-105.73-22.91-20.57-5.54-50.3-11.09-72.79C51,97.55,32.05,52.66,94.92,62.59c20.18,3.18,25.25,16.53,31.85,30.33,20,41.87,51,54.47,95.15,39.52,30.13-10.2,89,18.84,98,47.15C321.73,185.24,320.08,193.19,317.34,198.77Zm34.74,29.79c39-60.66-15.27-84.15-44.4-122.29-40.59-53.15-87.41-9.85-131.09-16C217.76,57,256.46,28.13,311.35,60.86c27.3,16.28,57.75,38.56,97.62,5.28,0,45.89-2.48,80.89.63,115.39C413.56,225.58,399.68,243.89,352.08,228.56Z"/></g></g></svg>