<svg xmlns="http://www.w3.org/2000/svg" viewBox="0 0 403.99 404.44"><defs><style>.cls-1{fill:#fbfbf2;}</style></defs><g id="Layer_2" data-name="Layer 2"><g id="Layer_1-2" data-name="Layer 1"><path class="cls-1" d="M404,58.18C404.12,18.84,385.59-.34,346.06,0c-48.48.43-97,.11-145.45.11s-97,.07-145.45,0C18.5,0,0,18.08,0,54.93c0,98.94-.16,197.87.19,296.8.12,33.84,18,52.26,51.86,52.42,98.83.46,197.66.24,296.49.23,36.53,0,55.24-18.31,55.27-55C403.93,252.32,403.67,155.25,404,58.18Zm-327.18,302C53.7,359.88,43.39,354,44.45,329c1.65-38.8,2.07-77.82-.11-116.56-1.61-28.59,11-33.59,35.91-33.3,23.12.27,34.36,6.16,32.22,31.16-1.58,18.37-.31,37-.31,55.5,0,20.36-1.61,40.88.39,61C115.39,355.41,101.74,360.46,76.81,360.16Zm248-.45c-11-1.34-22.4-.21-33.61-.21-135.5.06-133.86,0-135.17-131-.38-39.05,9.34-54.9,49.25-49.15,18.31,2.64,37.31.45,56,.45,97.72,0,97.73,0,97.72,100.14,0,15-1.29,30.07.26,44.87C362.08,351.43,352,363,324.84,359.71Zm34.87-252c-1.28,22.91-10.66,27.56-30.65,27.41-85.42-.64-170.85-1.18-256.25.1-39.24.59-26.68-27-27.52-46.31C44.39,68.25,37,42.58,74.83,44.52c42.6,2.18,85.4.5,128.1.49,33.43,0,67.56,4.32,100.12-1C359.87,34.78,362,65.75,359.71,107.71Z"/><path class="cls-1" d="M259.26,202.37c11.05,0,22.11.37,33.14-.06,16.86-.66,21.9,7.64,21.83,23.67-.09,17.83-9.59,21.4-24.33,21.19-22.09-.33-44.2-.49-66.28,0-16.94.39-21.84-7.7-21.78-23.73.06-17.87,9.54-21.57,24.28-21.17C237.16,202.59,248.22,202.35,259.26,202.37Z"/><path class="cls-1" d="M260,269.83c11.05,0,22.11.33,33.14-.12,17.64-.72,22.21,9.25,20.69,24.41-3.47,34.47-31,20.58-46.66,19.16-21.84-2-52.91,18.51-64.43-17.77-4.08-12.86,0-26,18.6-25.68C234.24,270,247.13,269.87,260,269.83Z"/><path class="cls-1" d="M272.51,114.18c-17.55-8.12-46,12.77-47.74-22.91C223,54.84,251.59,68,267.84,68.55s43.85-15.18,45.93,20C316,126.12,285.53,105.37,272.51,114.18Z"/><path class="cls-1" d="M111.12,88.82c-.65,12.63-7.37,21-20,21.94-12.9.95-21.16-7.05-22.16-19.56-1-12.9,7-21.14,19.49-22.23C101.52,67.82,108.42,76.21,111.12,88.82Z"/><path class="cls-1" d="M158.17,111.34c-12.65-.65-21-7.37-21.92-20.06-.94-12.91,7-21.21,19.51-22.19,12.89-1,21.11,7,22.23,19.53C179.16,101.74,170.7,108.6,158.17,111.34Z"/></g></g></svg>