<svg xmlns="http://www.w3.org/2000/svg" viewBox="0 0 322.99 323.06"><defs><style>.cls-1{fill:#fbfbf2;}</style></defs><g id="Layer_2" data-name="Layer 2"><g id="Layer_1-2" data-name="Layer 1"><path class="cls-1" d="M161.25,0C72.35.1-.09,72.75,0,161.73S72.74,323.17,161.66,323.06c88.74-.1,161.45-73,161.33-161.74S250.11-.1,161.25,0Zm-3.88,290.67c-69.95-2.05-126-60.87-125-131.22,1-70,59-127.07,129.15-127,71.76,0,130.15,59.38,129.09,131.19S229.36,292.77,157.37,290.67Z"/><path class="cls-1" d="M161.22,143c-18.28-9.74-30.12-24.37-31.27-44.17-1.2-20.6,11.5-33.71,31.91-33.44S194.73,79.08,193,99.61C191.34,119.17,179.86,134,161.22,143Z"/><path class="cls-1" d="M114,161.2c12.88,3.65,33.33-.7,30.5,21.53-2.79,21.87-13.1,42-39.41,42.59-18.15.37-31.16-11.16-31.22-29.52C73.8,170.79,91.12,162.13,114,161.2Z"/><path class="cls-1" d="M208,161.36c24.69,1,40.55,10.22,41.09,32.66.5,20.44-13.52,32.82-33.43,31.22-25.6-2.06-36.3-22.59-37.37-44.68C177.24,158.63,199.21,166.39,208,161.36Z"/></g></g></svg>