<svg xmlns="http://www.w3.org/2000/svg" viewBox="0 0 338.8 376.68"><defs><style>.cls-1{fill:#fbfbf2;}</style></defs><g id="Layer_2" data-name="Layer 2"><g id="Layer_1-2" data-name="Layer 1"><path class="cls-1" d="M77.25,351.82c-36.43-.21-50.12-17-52.27-54.75C20,209.2,10.13,121.57.57,34-2.34,7.42,5.57-.38,32.2,0Q169.5,2.14,306.86,0c27-.43,34.2,8,31.36,34.25-9.67,89.21-19.55,178.5-25,268-2.24,37.26-18.69,49.4-51.66,49.53-12.11,4.9-22.66,6.6-23.67-11.41,36.47-27.4,47.61-65.47,47.47-109.18-.16-51.46,11.18-102.07,11.72-153.71.31-29.37-7.18-43.22-38.34-42.76-59.78.88-119.6.57-179.39.1-26.64-.21-38.62,8.49-37.87,37.86C43.2,137.51,54.8,201.43,56.23,266.1c.75,34.08,27.05,51.35,45.13,74.29C99.83,357.94,89.54,357,77.25,351.82Z"/><path class="cls-1" d="M239.66,342l22,9.83c-61.45,34-122.9,32.26-184.36,0,8.2-1.47,17-1.63,22-10.11C146,336.37,192.86,335.85,239.66,342Z"/><path class="cls-1" d="M169.75,80.74c94.77,0,94.72,0,85.06,95.75-1.67,16.53-3.89,33.13-3.77,49.69.21,29.26-2.12,51.09-37.93,63.77-44.72,15.84-82.14,3.32-117.56-16.71C82.7,266,81.21,236,95.4,224.2c12-10,26.19-3.34,37.12,16.57,11.54,21,38.25,20,62.36,10.58C214.76,243.6,211,227.9,210.51,214c-.58-18.14-16.29-12-26.6-13a182.36,182.36,0,0,0-29.93-.12c-17.1,1.16-29.33-2.42-29.76-23.09-.47-22.76,17.06-13.57,28-17.38,21.69-7.56,64.4,20.24,62.76-21.63-1.52-38.8-42.47-11.25-64.9-17.26-15.53-4.16-33.07-1.13-49.71-.84-14.07.25-20.82-5.13-21.44-20.22-.66-16.13,7.25-19.93,20.93-19.77C123.16,81,146.46,80.79,169.75,80.74Z"/></g></g></svg>