<svg xmlns="http://www.w3.org/2000/svg" viewBox="0 0 363.17 420.44"><defs><style>.cls-1{fill:#fafaf1;}.cls-2{fill:#fafaf2;}</style></defs><g id="Layer_2" data-name="Layer 2"><g id="Layer_1-2" data-name="Layer 1"><path class="cls-1" d="M.08,198.89c0-50,.25-100.07-.08-150.11C-.22,15.81,15.39-.14,48.4,0,117,.29,185.63,0,254.24.14,284.92.19,300,16,300,46.62c0,31.27.32,62.55-.18,93.81-.13,8.22,3.92,21.29-10.25,21.21-12.22-.07-26-2.95-26.45-20-.6-23.43-1.34-46.93-.36-70.33,1-23.22-6.74-34.46-31.89-33.92-54.56,1.16-109.16.87-163.73.14-22.43-.3-29.91,9.74-29.76,31.17q.85,129,0,258c-.15,21.72,7.87,31.86,30.11,30.71a238.58,238.58,0,0,1,42,1.13c14,1.8,23.44,12.83,23.26,25.66-.24,17.39-16.21,9.89-25.41,10.41C3,400.57.06,397.63.06,292.71Q.06,245.81.08,198.89Z"/><path class="cls-1" d="M152.14,103.58c15.47,0,30.94-.18,46.41,0,13.1.19,25.59,1.94,25,19.56-.45,14.32-10.37,17.57-22.24,17.6q-51,.16-102.09,0c-11.73,0-22-2.77-22.7-17.15-.89-17.48,11.2-19.88,24.54-20C118.11,103.46,135.12,103.6,152.14,103.58Z"/><path class="cls-1" d="M171.34,179.08c-20.08,29-43.4,42.19-75.87,36.91-10-1.63-18.2-4.56-19.09-16-1-13.2,5.59-20.63,18.8-20.8C119.54,178.85,143.9,179.08,171.34,179.08Z"/><path class="cls-1" d="M114.34,268.36c-2.39,13.07-6.65,24.11-23.24,22-11.31-1.41-15.32-8.69-15-19.14.49-14.52,10.53-17.16,22.15-17.06C107.47,254.27,118.09,253.39,114.34,268.36Z"/><path class="cls-1" d="M355.91,390.62c-21.48-16.78-12.11-33.44-4.78-53.57,15.52-42.6,2.3-82.26-29.34-110.91C292.1,199.27,255.87,187,214,207c-43.28,20.67-60.78,55.17-64.05,90.55,1.09,84,69.7,133.32,138.64,106.82,19.81-7.61,31.76-5.14,44.85,9.18,6.87,7.51,15.71,10.24,24.36,1.47S363.73,396.73,355.91,390.62ZM317.35,326.8c-2.59,13.48-19.93,33.06-26.75,22.84-26.91-40.33-93.49,45.58-102.92-34.93-.36-3.06-.05-6.2-.05-10.35-4.37-32.81,18.47-51.77,42.53-64.75,20.83-11.23,43.37-6.05,63.8,11.77C318.51,272.8,322.83,298.25,317.35,326.8Z"/><path class="cls-2" d="M281.12,288.14c-.24,18-7.54,30.35-27,30.68-22.29.38-29.15-13.63-28.84-33.49.28-18.06,7.54-30.31,27-30.66C274.6,254.26,281.45,268.34,281.12,288.14Z"/></g></g></svg>