<svg xmlns="http://www.w3.org/2000/svg" viewBox="0 0 204.47 204.26"><defs><style>.cls-1{fill:#fbfbf2;}</style></defs><g id="Layer_2" data-name="Layer 2"><g id="Layer_1-2" data-name="Layer 1"><path class="cls-1" d="M203.86,46.09c-.62-29.26-16.61-45-46.14-45.52-37.67-.71-75.37-.84-113,.09C17.05,1.34,1.26,17.41.63,45.3q-1.27,56.48,0,113c.61,29.28,16.57,44.57,46.12,45.6,17.88.62,35.8.11,53.69.09,19.79,0,39.6.68,59.34-.18,27.61-1.2,43.45-16.87,44.08-44.72Q205.12,102.62,203.86,46.09ZM187.14,154.88C187.46,175.5,178.38,187,157,187c-36.76.05-73.53.12-110.29,0-19.72-.08-29.3-10.51-29.31-30,0-36.76-.1-73.52,0-110.28.07-19.73,10.48-29.29,30-29.32q28.28,0,56.56,0c91.46,0,83.12-8.34,83.11,83.79C187.1,119.06,186.87,137,187.14,154.88Z"/><path class="cls-1" d="M130.45,122.5c0-6.65-.16-11.37,0-16.07.28-6.54,0-15,9.12-14.27,8.6.68,7.77,9.12,8,15.65.11,3.76.7,7.68-.09,11.27-2.41,11,7,31-7.85,31.44C122.45,151.05,134.41,130.81,130.45,122.5Z"/><path class="cls-1" d="M140.33,61.7c5.34.85,8.37,4.42,8.21,9.37-.2,6.4-4.24,10-10.87,9.33-5.38-.52-8.38-4.36-8.23-9.3C129.64,64.69,133.6,61.25,140.33,61.7Z"/><path class="cls-1" d="M118.32,139.73c-8.16-26.79-15.41-53.9-24.9-80.2C89,47.18,79.9,50.19,76.31,60.79c-8.68,25.62-16,51.72-23.77,77.64-1.45,4.83-.9,9.74,3.54,12.45,4.87,3,8.53.13,11.45-4.22,11-16.44,22.91-15.87,34.84-1.17,3,3.72,5.17,8.13,10.84,5.89C118.46,149.3,119,144.64,118.32,139.73ZM88.2,118.05c-1.19,1.14-6.31.45-7.4-1-4.69-6.34,0-11.88,2.68-22.51C91,105.39,95.12,111.46,88.2,118.05Z"/></g></g></svg>