<svg xmlns="http://www.w3.org/2000/svg" viewBox="0 0 147.1 281.4"><defs><style>.cls-1{fill:#fbfbf2;}</style></defs><g id="Layer_2" data-name="Layer 2"><g id="Layer_1-2" data-name="Layer 1"><path class="cls-1" d="M114,0c15.14.33,31.54-2.15,33,20.85,1.28,20.56-9.66,26.82-27.71,26.76C95.87,47.53,99.65,64.76,98.05,79.8c-2.23,20.91,11.1,19,24.13,18.38,15.44-.72,26,4.75,23.28,21.91-2.39,14.95.73,36.73-24.63,33.89-23.51-2.63-23.32,10.43-22.72,27.1.84,23.36-.58,46.8.45,70.15.87,19.94-4.54,29.87-27.18,30.16-23.81.3-31-9.23-29.51-31.35,1.3-19.79.13-39.74.31-59.62.17-19.12,6.11-39.95-27.21-37.29C-3.24,154.59.56,135.79.08,123.51S.93,96.87,17,99c28.8,3.76,24.87-14.07,25.46-31.86C43.94,21.86,68.28-.42,114,0Z"/></g></g></svg>