<svg xmlns="http://www.w3.org/2000/svg" viewBox="0 0 186.61 199.6"><defs><style>.cls-1{fill:#fbfbf2;}</style></defs><g id="Layer_2" data-name="Layer 2"><g id="Layer_1-2" data-name="Layer 1"><path class="cls-1" d="M173.64.1C146.76.56,119.87.25,93,.25,67.77.25,42.55.73,17.36.05,4.29-.3-2,.83.56,17.53c5.81,38.14,8.56,76.74,13.06,115.1,5.75,49,6.54,47.28,54.26,63.22,34.06,11.38,62-6.14,92.41-12.42,7.12-1.47,7.66-7.8,8.33-13.86,5.7-51.74,11.07-103.52,17.65-155.15C187.78,2.53,184.44-.08,173.64.1Zm-9.8,34.68q-7.74,61-14.55,122.18c-.79,7.13-4.47,9.35-10.4,11.85-30.91,13-61.3,12.23-92.1-.61-6.55-2.72-8.81-5.88-9.55-12.38C32.66,115.91,28,76,22.8,36.16c-1.57-12,1.9-16.57,14.55-16,19.22.94,38.53.25,57.8.25,18.43,0,36.88.5,55.29-.18C161.56,19.86,165.23,23.79,163.84,34.78Z"/><path class="cls-1" d="M92.42,40.63c12.59,0,25.18-.07,37.77,0,6.59.06,13.78-1.1,13.11,9.75-.57,9.26-5.89,10.81-13.37,10.78-16.79-.08-33.58-.22-50.37.13-6,.12-14.62-2.69-14,8.68.49,8.41,3,14.69,13.3,14.13a140.37,140.37,0,0,1,22.65.1c12.11,1.32,30.58-6.65,35.05,4.47,7,17.43,4.92,40.44-4.4,56-8.42,14.05-29.73,18.88-46.91,13.69-11.9-3.59-30.76.25-33.46-19.75-.71-5.27-4.81-12.37,2.42-15.69,5.08-2.33,11-2.56,15.48,3.7,8.77,12.3,21.71,10.58,34.32,8.67,11.85-1.81,13.6-10.44,13.72-20.48.16-12.7-9.27-8.93-16-9.69a93.89,93.89,0,0,0-10.07-.07c-43.22-.12-42.35-.24-47.83-42.66-2.38-18.45,3.19-24.2,20.85-22C73.84,41.56,83.19,40.63,92.42,40.63Z"/></g></g></svg>