<svg xmlns="http://www.w3.org/2000/svg" viewBox="0 0 474.5 681.77"><defs><style>.cls-1{fill:#fbfbf2;}</style></defs><g id="Layer_2" data-name="Layer 2"><g id="Layer_1-2" data-name="Layer 1"><path class="cls-1" d="M386,264c65.94-42.05,107.76-93.9,79.67-172.87C437.71,12.67,373.07-2.84,298.23.39,244.1,2.73,189.78.33,135.57,1.22c-53.95.89-93.63,26.52-119.5,73.53-34.07,61.91,24.51,115.34,20.62,163C32.18,293-18.63,345,21.64,407.9,23,410,24,412.39,25.8,414c23.07,20.71,18.17,38.12.55,62.25-38.09,52.13-34.14,106.95,7,156.17,36.38,43.49,84.38,60.44,139.28,42,59.85-20.1,92.22-64,94.12-127.59,1.44-48.13.29-96.34.29-158.2C319,450.28,371.52,466.74,420,414.21,473.59,356,437,306.63,386,264ZM152.9,58.71c65.21-6.43,56.64,33.89,54.38,81.38-3.11,25.51,20.52,74-49.65,69-53-3.77-95.93-16.66-95.49-76.52C62.55,77.57,102.55,63.68,152.9,58.71Zm3.18,207.16c69.37-5.79,49.3,41.05,51.91,72.56-.73,40.34,14.73,84.9-53.57,78-49.89-5-90.83-17.47-92.26-72.53C60.61,284.23,102.72,270.33,156.08,265.87ZM136.24,620.51c-45.77,2.1-75.7-26.5-74.36-72.45,1.74-59.78,43.94-73.24,96.75-74.78,43.17-1.26,59.79,13.22,49.57,45.57C209.45,579.4,191.09,618,136.24,620.51ZM316.76,209.17c-72.46,5.11-42.48-46.71-49.82-74.51,2.66-37.19-15.5-80.38,49.17-75.9,52.58,3.64,96.84,15.07,97.06,74.86S369.49,205.45,316.76,209.17Z"/></g></g></svg>