<svg xmlns="http://www.w3.org/2000/svg" viewBox="0 0 260.87 261.65"><defs><style>.cls-1{fill:#fbfbf2;}</style></defs><g id="Layer_2" data-name="Layer 2"><g id="Layer_1-2" data-name="Layer 1"><path class="cls-1" d="M241.51,174.27c-13-1.35-10.34-12.18-9.3-19.31,5-34.29-12.86-41.79-42-38.34-9.46,1.12-19.17.36-28.76.06-6.86-.21-15.34,1-15.59-9.55-.16-6.68-3-15.51,6.15-18.32,43.75-13.5,21.13-49.24,19.64-72.43-1.71-26.61-31-12.31-48.15-14.27C110.55.64,90-4.17,89.2,16.79c-.83,22.69-11.77,49.05,8.24,67.84,7.67,7.2,23.64,6.29,18.63,22.93-5.22,17.37-20.07,6.8-30.41,9-6.9,1.44-14.4.9-21.52.16-23.57-2.47-37.07,4.72-34.26,31.51,1.3,12.39,3.27,24-16.58,28.6-16,3.74-17.81,71.65-4.06,81.2,10.4,7.22,70.32,2.85,75.81-5.54,10.63-16.21.66-69.27-16.82-77.52-11.28-5.33-9-12.52-8.72-20.13.41-10.59,9.24-8.93,15.94-9,18-.29,36-.1,54-.12s36-.4,54,.18c7.4.23,18-3.76,19.3,9.41.94,9.92-1.27,14.86-12.74,20.57-31.62,15.74-13.63,46.57-14,70.27-.29,20.43,21.16,14.33,34.44,14.63,51,1.15,51.19.85,50.17-50.95C260.3,195,265.44,176.74,241.51,174.27ZM45,232.13c-10.12,0-14.94-3.16-14.93-14,0-10.09,3.09-15.16,14-14.88,9.62.25,16.33,2.36,14.55,12.7C59.86,227.38,55.78,232.1,45,232.13ZM129.69,58.94c-11.77,1.05-13-6.16-13.1-15.51-.12-11.56,6.37-13,15.77-13.11,11.59-.09,13,6.43,13.08,15.81C145.54,57.71,139.15,59.9,129.69,58.94ZM231.82,216.41c-.34,8.84-.24,17.41-11.56,15.31-11,1.12-17.3-1.18-17.22-12.71.06-9.43,1.61-15.83,13.14-15.76C225.63,203.31,232.28,204.86,231.82,216.41Z"/></g></g></svg>