<svg xmlns="http://www.w3.org/2000/svg" viewBox="0 0 48 35.75"><defs><style>.cls-1{fill:#fafafa;}</style></defs><g id="Layer_2" data-name="Layer 2"><g id="Layer_1-2" data-name="Layer 1"><path class="cls-1" d="M0,27.77H5.86c-3-8-1.26-16.14-1.25-24.13C4.61,2.45,7.5.27,9.11.21c10-.31,20-.22,30-.07,1.39,0,2.77,1.11,4.15,1.71L43,3.13H8.14v20.7H25.29v7.94H0Z"/><path class="cls-1" d="M48,32.77c-4.41,4.54-9.88,2.7-15,2.12-1.08-.13-2.53-3-2.63-4.66-.32-5.63-.11-11.3-.12-17,0-3.48,1.68-5.41,5.16-5.18,4.29.28,9.09-1.62,12.54,2.66Zm-14-3H44V11.85H34Z"/></g></g></svg>