<svg xmlns="http://www.w3.org/2000/svg" viewBox="0 0 214 205.37"><defs><style>.cls-1{fill:#fbfbf2;}</style></defs><g id="Layer_2" data-name="Layer 2"><g id="Layer_1-2" data-name="Layer 1"><path class="cls-1" d="M214,116c-8.48-4.18-25.81,9.23-25.81-8.91s17.33-4.74,25.81-8.92Z"/><path class="cls-1" d="M115.71,13.91c-.88,4.08,3.48,12.22-7.61,13-10,.65-10.65-5.24-9.88-12.33C98.84,8.83,94.89.75,106,.05,115.82-.58,116.5,5.14,115.71,13.91Z"/><path class="cls-1" d="M13.74,115.86C6,116.13-.45,116.65,0,106.33c.51-11,8.3-7.72,14.13-8.11,6.69-.44,13.23-.87,12.73,9.52C26.36,118.72,18.54,115.12,13.74,115.86Z"/><path class="cls-1" d="M37.6,27.22c7,3.91,13.76,8.8,15.76,16.87,1.09,4.41-3.81,9.1-8,9.08-9.22,0-14.29-8-17.41-14.89C26.08,34,32.57,29.93,37.6,27.22Z"/><path class="cls-1" d="M186.93,38c-4.69,6.29-8.76,14-17.34,15.31-4.45.68-9.05-4-8.72-8.34.68-8.94,8.3-14.26,15.36-17.16C180.06,26.22,184.69,32.56,186.93,38Z"/><path class="cls-1" d="M54,171.65c-5.56,5-8.31,14.66-17.62,14.07-4.07-.25-10.73-5.32-8-10.87,3.1-6.3,8.13-13.32,15.93-14.07C49.67,160.26,53.07,165.31,54,171.65Z"/><path class="cls-1" d="M175.43,187.3c-5.21-6.38-14.76-9.16-14.49-18.64.11-4.2,4.78-9.11,9.11-7.89,7.87,2.21,14.68,8.11,16,16.23C186.77,181.57,180.67,185.07,175.43,187.3Z"/><path class="cls-1" d="M169.31,106.85c-.15-28.72-20.65-54.11-49.07-60.79C94.28,40,66,53,52.68,77.26c-14.07,25.58-10.27,56,12.67,74.25,11.94,9.51,16,19,15.22,33.28-.7,12.18,6.35,19.65,18.7,20.08s32,3.27,31.61-11.38c-.77-26.16,16.63-38.4,29.31-55.24C166.9,129.35,169.78,118.34,169.31,106.85Zm-35.63,34.68c-14.33,8.29-20.4,17.26-17.94,33.23.84,5.41,1.82,12.06-7.74,12.57-10.54.56-10.83-6.17-9.69-12.91,2.75-16.21-3.86-25.31-18.28-33C67.79,135,63,121.5,62.64,111.54,62.53,86.65,77,68.4,97.22,63.6c19.78-4.7,40.93,5.74,49.89,24.62C156.15,107.28,152,131,133.68,141.53Z"/></g></g></svg>